<?xml version="1.0" encoding="utf-8"?>
<!-- Generator: Adobe Illustrator 16.0.0, SVG Export Plug-In . SVG Version: 6.00 Build 0)  -->
<!DOCTYPE svg PUBLIC "-//W3C//DTD SVG 1.1//EN" "http://www.w3.org/Graphics/SVG/1.1/DTD/svg11.dtd">
<svg version="1.1" id="Layer_1" xmlns="http://www.w3.org/2000/svg" xmlns:xlink="http://www.w3.org/1999/xlink" x="0px" y="0px"
	 width="160px" height="160px" viewBox="0 0 160 160" enable-background="new 0 0 160 160" xml:space="preserve">
<rect fill="#E51937" width="160" height="160"/>
<g>
	<defs>
		<rect id="SVGID_1_" width="160" height="160"/>
	</defs>
	<clipPath id="SVGID_2_">
		<use xlink:href="#SVGID_1_"  overflow="visible"/>
	</clipPath>
	<path clip-path="url(#SVGID_2_)" fill="#FFFFFF" d="M60.81,101.071c0,4.492-1.002,8.017-3.003,10.571
		c-2.002,2.556-4.7,3.833-8.093,3.833H32.246V39.06h17.468c3.393,0,6.091,1.294,8.093,3.882c2.001,2.588,3.003,6.128,3.003,10.62
		V101.071z M52.204,99.167V55.271c0-4.264-1.672-6.396-5.017-6.396h-6.372v56.786h6.152
		C50.458,105.661,52.204,103.497,52.204,99.167"/>
	<path clip-path="url(#SVGID_2_)" fill="#FFFFFF" d="M95.563,108.493c0,4.655-1.745,6.982-5.236,6.982H67.438V39.061h22.743
		c3.393,0,5.091,2.343,5.091,7.031V65.77c0,2.604-0.611,4.622-1.832,6.054c-0.171,0.196-1.66,1.449-4.468,3.76
		c2.905,2.377,4.443,3.679,4.614,3.906c1.318,1.53,1.978,3.63,1.978,6.299V108.493z M86.738,67.186V48.679h-10.73v22.412H82.6
		L86.738,67.186z M86.958,105.856V84.079l-4.212-3.711h-6.738v25.488H86.958z"/>
	<polygon clip-path="url(#SVGID_2_)" fill="#FFFFFF" points="131.195,115.476 121.748,115.476 110.871,81.394 110.871,115.476 
		102.302,115.476 102.302,39.06 110.871,39.06 110.871,71.385 120.393,39.06 129.768,39.06 129.768,39.598 118.123,75.876 	"/>
</g>
</svg>
